# xmcd
#
# Track frame offsets:
#	150
#	20195
#	76038
#	129210
#	173240
#	230828
#
# Disc length: 3584 seconds
#
# Revision: 0
# Processed by: cddbd v1.4b42PL1 Copyright (c) Steve Scherf et al.
# Submitted via: audiograbber 1.80
#
DISCID=430dfe06
DTITLE=Eric Clapton - Blues Night Disc 2
DYEAR=1900
DGENRE=
TTITLE0=Money
TTITLE1=Five Long Years
TTITLE2=Everything Gonna Be Alright
TTITLE3=Something On my Mind My Time After Time
TTITLE4=Sweet Home Chigago
TTITLE5=Wee Wee Baby
EXTD=
EXTT0=
EXTT1=
EXTT2=
EXTT3=
EXTT4=
EXTT5=
PLAYORDER=
